solid OpenSCAD_Model
  facet normal 0 0 -1
    outer loop
      vertex 19.75 17.7345 0
      vertex 34 17.7345 0
      vertex 19.75 6.76554 0
    endloop
  endfacet
  facet normal 0 0 -1
    outer loop
      vertex 34 17.7345 0
      vertex 19.75 17.7345 0
      vertex 20.625 19.25 0
    endloop
  endfacet
  facet normal 0 0 -1
    outer loop
      vertex 18 6.76554 0
      vertex 19.75 17.7345 0
      vertex 19.75 6.76554 0
    endloop
  endfacet
  facet normal 0 0 -1
    outer loop
      vertex 18 6.76554 0
      vertex 18 17.7345 0
      vertex 19.75 17.7345 0
    endloop
  endfacet
  facet normal 0 0 -1
    outer loop
      vertex 17.125 5.25 0
      vertex 18 17.7345 0
      vertex 18 6.76554 0
    endloop
  endfacet
  facet normal -0 0 -1
    outer loop
      vertex 18 17.7345 0
      vertex 17.125 5.25 0
      vertex 17.125 19.25 0
    endloop
  endfacet
  facet normal 0 0 -1
    outer loop
      vertex 35.75 6.76554 0
      vertex 36.625 19.25 0
      vertex 36.625 5.25 0
    endloop
  endfacet
  facet normal 0 0 -1
    outer loop
      vertex 35.75 6.76554 0
      vertex 35.75 17.7345 0
      vertex 36.625 19.25 0
    endloop
  endfacet
  facet normal 0 0 -1
    outer loop
      vertex 34 6.76554 0
      vertex 35.75 17.7345 0
      vertex 35.75 6.76554 0
    endloop
  endfacet
  facet normal 0 0 -1
    outer loop
      vertex 34 6.76554 0
      vertex 34 17.7345 0
      vertex 35.75 17.7345 0
    endloop
  endfacet
  facet normal 0 0 -1
    outer loop
      vertex 20.625 5.25 0
      vertex 34 6.76554 0
      vertex 33.125 5.25 0
    endloop
  endfacet
  facet normal 0 0 -1
    outer loop
      vertex 19.75 6.76554 0
      vertex 34 6.76554 0
      vertex 20.625 5.25 0
    endloop
  endfacet
  facet normal 0 0 -1
    outer loop
      vertex 36.625 19.25 0
      vertex 53.75 0 0
      vertex 36.625 5.25 0
    endloop
  endfacet
  facet normal 0 0 -1
    outer loop
      vertex 53.75 0 0
      vertex 35.75 3.73446 0
      vertex 36.625 5.25 0
    endloop
  endfacet
  facet normal 0 0 -1
    outer loop
      vertex 53.75 0 0
      vertex 34 3.73446 0
      vertex 35.75 3.73446 0
    endloop
  endfacet
  facet normal 0 0 -1
    outer loop
      vertex 34 6.76554 0
      vertex 19.75 6.76554 0
      vertex 34 17.7345 0
    endloop
  endfacet
  facet normal 0 0 -1
    outer loop
      vertex 34 3.73446 0
      vertex 20.625 5.25 0
      vertex 33.125 5.25 0
    endloop
  endfacet
  facet normal 0 0 -1
    outer loop
      vertex 19.75 3.73446 0
      vertex 34 3.73446 0
      vertex 53.75 0 0
    endloop
  endfacet
  facet normal 0 0 -1
    outer loop
      vertex 34 3.73446 0
      vertex 19.75 3.73446 0
      vertex 20.625 5.25 0
    endloop
  endfacet
  facet normal 0 0 -1
    outer loop
      vertex 0 0 0
      vertex 19.75 3.73446 0
      vertex 53.75 0 0
    endloop
  endfacet
  facet normal -0 0 -1
    outer loop
      vertex 17.125 5.25 0
      vertex 0 0 0
      vertex 17.125 19.25 0
    endloop
  endfacet
  facet normal -0 0 -1
    outer loop
      vertex 18 3.73446 0
      vertex 0 0 0
      vertex 17.125 5.25 0
    endloop
  endfacet
  facet normal -0 0 -1
    outer loop
      vertex 19.75 3.73446 0
      vertex 0 0 0
      vertex 18 3.73446 0
    endloop
  endfacet
  facet normal 0 0 -1
    outer loop
      vertex 53.75 0 0
      vertex 36.625 19.25 0
      vertex 53.75 43.75 0
    endloop
  endfacet
  facet normal 0 0 -1
    outer loop
      vertex 35.75 20.7655 0
      vertex 53.75 43.75 0
      vertex 36.625 19.25 0
    endloop
  endfacet
  facet normal 0 0 -1
    outer loop
      vertex 34 20.7655 0
      vertex 53.75 43.75 0
      vertex 35.75 20.7655 0
    endloop
  endfacet
  facet normal 0 0 -1
    outer loop
      vertex 34 17.7345 0
      vertex 20.625 19.25 0
      vertex 33.125 19.25 0
    endloop
  endfacet
  facet normal 0 0 -1
    outer loop
      vertex 33.125 19.25 0
      vertex 20.625 19.25 0
      vertex 34 20.7655 0
    endloop
  endfacet
  facet normal 0 0 -1
    outer loop
      vertex 19.75 20.7655 0
      vertex 34 20.7655 0
      vertex 20.625 19.25 0
    endloop
  endfacet
  facet normal 0 0 -1
    outer loop
      vertex 34 20.7655 0
      vertex 19.75 20.7655 0
      vertex 53.75 43.75 0
    endloop
  endfacet
  facet normal 0 0 -1
    outer loop
      vertex 0 43.75 0
      vertex 19.75 20.7655 0
      vertex 18 20.7655 0
    endloop
  endfacet
  facet normal 0 0 -1
    outer loop
      vertex 0 43.75 0
      vertex 17.125 19.25 0
      vertex 0 0 0
    endloop
  endfacet
  facet normal 0 0 -1
    outer loop
      vertex 19.75 20.7655 0
      vertex 0 43.75 0
      vertex 53.75 43.75 0
    endloop
  endfacet
  facet normal 0 0 -1
    outer loop
      vertex 17.125 19.25 0
      vertex 0 43.75 0
      vertex 18 20.7655 0
    endloop
  endfacet
  facet normal -0.768221 0 0.640184
    outer loop
      vertex 0 0 3.5
      vertex 10 33.75 15.5
      vertex 0 43.75 3.5
    endloop
  endfacet
  facet normal -0.768221 0 0.640184
    outer loop
      vertex 10 33.75 15.5
      vertex 0 0 3.5
      vertex 10 0 15.5
    endloop
  endfacet
  facet normal 0 0 1
    outer loop
      vertex 43.75 33.75 15.5
      vertex 40.25 26.75 15.5
      vertex 43.75 0 15.5
    endloop
  endfacet
  facet normal 0 0 1
    outer loop
      vertex 43.75 33.75 15.5
      vertex 13.5 26.75 15.5
      vertex 40.25 26.75 15.5
    endloop
  endfacet
  facet normal -0 0 1
    outer loop
      vertex 10 33.75 15.5
      vertex 13.5 26.75 15.5
      vertex 43.75 33.75 15.5
    endloop
  endfacet
  facet normal 0 0 1
    outer loop
      vertex 10 0 15.5
      vertex 13.5 26.75 15.5
      vertex 10 33.75 15.5
    endloop
  endfacet
  facet normal 0 0 1
    outer loop
      vertex 13.5 26.75 15.5
      vertex 10 0 15.5
      vertex 13.5 0 15.5
    endloop
  endfacet
  facet normal 0 0 1
    outer loop
      vertex 43.75 0 15.5
      vertex 40.25 26.75 15.5
      vertex 40.25 0 15.5
    endloop
  endfacet
  facet normal 0.768221 0 0.640184
    outer loop
      vertex 53.75 0 3.5
      vertex 43.75 33.75 15.5
      vertex 43.75 0 15.5
    endloop
  endfacet
  facet normal 0.768221 0 0.640184
    outer loop
      vertex 43.75 33.75 15.5
      vertex 53.75 0 3.5
      vertex 53.75 43.75 3.5
    endloop
  endfacet
  facet normal -1 0 0
    outer loop
      vertex 0 0 0
      vertex 0 43.75 3.5
      vertex 0 43.75 0
    endloop
  endfacet
  facet normal -1 -0 0
    outer loop
      vertex 0 43.75 3.5
      vertex 0 0 0
      vertex 0 0 3.5
    endloop
  endfacet
  facet normal 0 -1 0
    outer loop
      vertex 10 0 15.5
      vertex 13.5 0 12
      vertex 13.5 0 15.5
    endloop
  endfacet
  facet normal 0 -1 0
    outer loop
      vertex 0 0 0
      vertex 13.5 0 12
      vertex 0 0 3.5
    endloop
  endfacet
  facet normal 0 -1 0
    outer loop
      vertex 0 0 3.5
      vertex 13.5 0 12
      vertex 10 0 15.5
    endloop
  endfacet
  facet normal 0 -1 0
    outer loop
      vertex 40.25 0 12
      vertex 43.75 0 15.5
      vertex 40.25 0 15.5
    endloop
  endfacet
  facet normal 0 -1 0
    outer loop
      vertex 40.25 0 12
      vertex 53.75 0 3.5
      vertex 43.75 0 15.5
    endloop
  endfacet
  facet normal 0 -1 -0
    outer loop
      vertex 13.5 0 12
      vertex 0 0 0
      vertex 40.25 0 12
    endloop
  endfacet
  facet normal 0 -1 0
    outer loop
      vertex 53.75 0 0
      vertex 40.25 0 12
      vertex 0 0 0
    endloop
  endfacet
  facet normal 0 -1 0
    outer loop
      vertex 40.25 0 12
      vertex 53.75 0 0
      vertex 53.75 0 3.5
    endloop
  endfacet
  facet normal 0 0.768221 0.640184
    outer loop
      vertex 53.75 43.75 3.5
      vertex 10 33.75 15.5
      vertex 43.75 33.75 15.5
    endloop
  endfacet
  facet normal 0 0.768221 0.640184
    outer loop
      vertex 10 33.75 15.5
      vertex 53.75 43.75 3.5
      vertex 0 43.75 3.5
    endloop
  endfacet
  facet normal 0 1 -0
    outer loop
      vertex 53.75 43.75 0
      vertex 0 43.75 3.5
      vertex 53.75 43.75 3.5
    endloop
  endfacet
  facet normal 0 1 0
    outer loop
      vertex 0 43.75 3.5
      vertex 53.75 43.75 0
      vertex 0 43.75 0
    endloop
  endfacet
  facet normal 1 -0 0
    outer loop
      vertex 53.75 0 3.5
      vertex 53.75 43.75 0
      vertex 53.75 43.75 3.5
    endloop
  endfacet
  facet normal 1 0 0
    outer loop
      vertex 53.75 43.75 0
      vertex 53.75 0 3.5
      vertex 53.75 0 0
    endloop
  endfacet
  facet normal 1 -0 0
    outer loop
      vertex 13.5 0 15.5
      vertex 13.5 26.75 12
      vertex 13.5 26.75 15.5
    endloop
  endfacet
  facet normal 1 0 0
    outer loop
      vertex 13.5 26.75 12
      vertex 13.5 0 15.5
      vertex 13.5 0 12
    endloop
  endfacet
  facet normal -1 0 0
    outer loop
      vertex 40.25 0 12
      vertex 40.25 26.75 15.5
      vertex 40.25 26.75 12
    endloop
  endfacet
  facet normal -1 -0 0
    outer loop
      vertex 40.25 26.75 15.5
      vertex 40.25 0 12
      vertex 40.25 0 15.5
    endloop
  endfacet
  facet normal 0 -1 0
    outer loop
      vertex 13.5 26.75 12
      vertex 40.25 26.75 15.5
      vertex 13.5 26.75 15.5
    endloop
  endfacet
  facet normal 0 -1 -0
    outer loop
      vertex 40.25 26.75 15.5
      vertex 13.5 26.75 12
      vertex 40.25 26.75 12
    endloop
  endfacet
  facet normal 0 0 1
    outer loop
      vertex 19.75 6.76554 12
      vertex 34 6.76554 12
      vertex 19.75 17.7345 12
    endloop
  endfacet
  facet normal 0 0 1
    outer loop
      vertex 34 6.76554 12
      vertex 19.75 6.76554 12
      vertex 20.625 5.25 12
    endloop
  endfacet
  facet normal -0 0 1
    outer loop
      vertex 18 17.7345 12
      vertex 19.75 6.76554 12
      vertex 19.75 17.7345 12
    endloop
  endfacet
  facet normal 0 0 1
    outer loop
      vertex 18 17.7345 12
      vertex 18 6.76554 12
      vertex 19.75 6.76554 12
    endloop
  endfacet
  facet normal 0 0 1
    outer loop
      vertex 17.125 19.25 12
      vertex 18 6.76554 12
      vertex 18 17.7345 12
    endloop
  endfacet
  facet normal 0 0 1
    outer loop
      vertex 18 6.76554 12
      vertex 17.125 19.25 12
      vertex 17.125 5.25 12
    endloop
  endfacet
  facet normal -0 0 1
    outer loop
      vertex 35.75 17.7345 12
      vertex 36.625 5.25 12
      vertex 36.625 19.25 12
    endloop
  endfacet
  facet normal 0 0 1
    outer loop
      vertex 35.75 17.7345 12
      vertex 35.75 6.76554 12
      vertex 36.625 5.25 12
    endloop
  endfacet
  facet normal -0 0 1
    outer loop
      vertex 34 17.7345 12
      vertex 35.75 6.76554 12
      vertex 35.75 17.7345 12
    endloop
  endfacet
  facet normal 0 0 1
    outer loop
      vertex 34 17.7345 12
      vertex 34 6.76554 12
      vertex 35.75 6.76554 12
    endloop
  endfacet
  facet normal -0 0 1
    outer loop
      vertex 20.625 19.25 12
      vertex 34 17.7345 12
      vertex 33.125 19.25 12
    endloop
  endfacet
  facet normal 0 0 1
    outer loop
      vertex 19.75 17.7345 12
      vertex 34 17.7345 12
      vertex 20.625 19.25 12
    endloop
  endfacet
  facet normal 0 0 1
    outer loop
      vertex 40.25 26.75 12
      vertex 36.625 19.25 12
      vertex 40.25 0 12
    endloop
  endfacet
  facet normal 0 0 1
    outer loop
      vertex 40.25 26.75 12
      vertex 35.75 20.7655 12
      vertex 36.625 19.25 12
    endloop
  endfacet
  facet normal 0 0 1
    outer loop
      vertex 40.25 26.75 12
      vertex 34 20.7655 12
      vertex 35.75 20.7655 12
    endloop
  endfacet
  facet normal 0 0 1
    outer loop
      vertex 34 17.7345 12
      vertex 19.75 17.7345 12
      vertex 34 6.76554 12
    endloop
  endfacet
  facet normal 0 0 1
    outer loop
      vertex 34 20.7655 12
      vertex 20.625 19.25 12
      vertex 33.125 19.25 12
    endloop
  endfacet
  facet normal 0 0 1
    outer loop
      vertex 19.75 20.7655 12
      vertex 34 20.7655 12
      vertex 40.25 26.75 12
    endloop
  endfacet
  facet normal 0 0 1
    outer loop
      vertex 34 20.7655 12
      vertex 19.75 20.7655 12
      vertex 20.625 19.25 12
    endloop
  endfacet
  facet normal -0 0 1
    outer loop
      vertex 13.5 26.75 12
      vertex 19.75 20.7655 12
      vertex 40.25 26.75 12
    endloop
  endfacet
  facet normal 0 0 1
    outer loop
      vertex 13.5 0 12
      vertex 17.125 19.25 12
      vertex 13.5 26.75 12
    endloop
  endfacet
  facet normal 0 0 1
    outer loop
      vertex 18 20.7655 12
      vertex 13.5 26.75 12
      vertex 17.125 19.25 12
    endloop
  endfacet
  facet normal 0 0 1
    outer loop
      vertex 19.75 20.7655 12
      vertex 13.5 26.75 12
      vertex 18 20.7655 12
    endloop
  endfacet
  facet normal -0 0 1
    outer loop
      vertex 36.625 5.25 12
      vertex 40.25 0 12
      vertex 36.625 19.25 12
    endloop
  endfacet
  facet normal -0 0 1
    outer loop
      vertex 35.75 3.73446 12
      vertex 40.25 0 12
      vertex 36.625 5.25 12
    endloop
  endfacet
  facet normal -0 0 1
    outer loop
      vertex 34 3.73446 12
      vertex 40.25 0 12
      vertex 35.75 3.73446 12
    endloop
  endfacet
  facet normal 0 0 1
    outer loop
      vertex 34 6.76554 12
      vertex 20.625 5.25 12
      vertex 33.125 5.25 12
    endloop
  endfacet
  facet normal 0 0 1
    outer loop
      vertex 33.125 5.25 12
      vertex 20.625 5.25 12
      vertex 34 3.73446 12
    endloop
  endfacet
  facet normal 0 0 1
    outer loop
      vertex 19.75 3.73446 12
      vertex 34 3.73446 12
      vertex 20.625 5.25 12
    endloop
  endfacet
  facet normal 0 0 1
    outer loop
      vertex 34 3.73446 12
      vertex 19.75 3.73446 12
      vertex 40.25 0 12
    endloop
  endfacet
  facet normal 0 0 1
    outer loop
      vertex 13.5 0 12
      vertex 19.75 3.73446 12
      vertex 18 3.73446 12
    endloop
  endfacet
  facet normal 0 0 1
    outer loop
      vertex 19.75 3.73446 12
      vertex 13.5 0 12
      vertex 40.25 0 12
    endloop
  endfacet
  facet normal 0 0 1
    outer loop
      vertex 17.125 5.25 12
      vertex 13.5 0 12
      vertex 18 3.73446 12
    endloop
  endfacet
  facet normal 0 0 1
    outer loop
      vertex 17.125 19.25 12
      vertex 13.5 0 12
      vertex 17.125 5.25 12
    endloop
  endfacet
  facet normal -0.866025 -0.5 0
    outer loop
      vertex 20.625 5.25 0
      vertex 19.75 6.76554 12
      vertex 19.75 6.76554 0
    endloop
  endfacet
  facet normal -0.866025 -0.5 0
    outer loop
      vertex 19.75 6.76554 12
      vertex 20.625 5.25 0
      vertex 20.625 5.25 12
    endloop
  endfacet
  facet normal 0 1 -0
    outer loop
      vertex 19.75 3.73446 0
      vertex 18 3.73446 12
      vertex 19.75 3.73446 12
    endloop
  endfacet
  facet normal 0 1 0
    outer loop
      vertex 18 3.73446 12
      vertex 19.75 3.73446 0
      vertex 18 3.73446 0
    endloop
  endfacet
  facet normal 0.866025 -0.5 0
    outer loop
      vertex 17.125 5.25 12
      vertex 18 6.76554 0
      vertex 18 6.76554 12
    endloop
  endfacet
  facet normal 0.866025 -0.5 0
    outer loop
      vertex 18 6.76554 0
      vertex 17.125 5.25 12
      vertex 17.125 5.25 0
    endloop
  endfacet
  facet normal 0 -1 0
    outer loop
      vertex 18 6.76554 0
      vertex 19.75 6.76554 12
      vertex 18 6.76554 12
    endloop
  endfacet
  facet normal 0 -1 -0
    outer loop
      vertex 19.75 6.76554 12
      vertex 18 6.76554 0
      vertex 19.75 6.76554 0
    endloop
  endfacet
  facet normal 0.866025 0.5 0
    outer loop
      vertex 18 3.73446 12
      vertex 17.125 5.25 0
      vertex 17.125 5.25 12
    endloop
  endfacet
  facet normal 0.866025 0.5 0
    outer loop
      vertex 17.125 5.25 0
      vertex 18 3.73446 12
      vertex 18 3.73446 0
    endloop
  endfacet
  facet normal -0.866025 0.5 0
    outer loop
      vertex 19.75 3.73446 0
      vertex 20.625 5.25 12
      vertex 20.625 5.25 0
    endloop
  endfacet
  facet normal -0.866025 0.5 0
    outer loop
      vertex 20.625 5.25 12
      vertex 19.75 3.73446 0
      vertex 19.75 3.73446 12
    endloop
  endfacet
  facet normal -0.866025 -0.5 0
    outer loop
      vertex 20.625 19.25 0
      vertex 19.75 20.7655 12
      vertex 19.75 20.7655 0
    endloop
  endfacet
  facet normal -0.866025 -0.5 0
    outer loop
      vertex 19.75 20.7655 12
      vertex 20.625 19.25 0
      vertex 20.625 19.25 12
    endloop
  endfacet
  facet normal 0 1 -0
    outer loop
      vertex 19.75 17.7345 0
      vertex 18 17.7345 12
      vertex 19.75 17.7345 12
    endloop
  endfacet
  facet normal 0 1 0
    outer loop
      vertex 18 17.7345 12
      vertex 19.75 17.7345 0
      vertex 18 17.7345 0
    endloop
  endfacet
  facet normal 0.866025 -0.5 0
    outer loop
      vertex 17.125 19.25 12
      vertex 18 20.7655 0
      vertex 18 20.7655 12
    endloop
  endfacet
  facet normal 0.866025 -0.5 0
    outer loop
      vertex 18 20.7655 0
      vertex 17.125 19.25 12
      vertex 17.125 19.25 0
    endloop
  endfacet
  facet normal 0 -1 0
    outer loop
      vertex 18 20.7655 0
      vertex 19.75 20.7655 12
      vertex 18 20.7655 12
    endloop
  endfacet
  facet normal 0 -1 -0
    outer loop
      vertex 19.75 20.7655 12
      vertex 18 20.7655 0
      vertex 19.75 20.7655 0
    endloop
  endfacet
  facet normal 0.866025 0.5 0
    outer loop
      vertex 18 17.7345 12
      vertex 17.125 19.25 0
      vertex 17.125 19.25 12
    endloop
  endfacet
  facet normal 0.866025 0.5 0
    outer loop
      vertex 17.125 19.25 0
      vertex 18 17.7345 12
      vertex 18 17.7345 0
    endloop
  endfacet
  facet normal -0.866025 0.5 0
    outer loop
      vertex 19.75 17.7345 0
      vertex 20.625 19.25 12
      vertex 20.625 19.25 0
    endloop
  endfacet
  facet normal -0.866025 0.5 0
    outer loop
      vertex 20.625 19.25 12
      vertex 19.75 17.7345 0
      vertex 19.75 17.7345 12
    endloop
  endfacet
  facet normal -0.866025 -0.5 0
    outer loop
      vertex 36.625 19.25 0
      vertex 35.75 20.7655 12
      vertex 35.75 20.7655 0
    endloop
  endfacet
  facet normal -0.866025 -0.5 0
    outer loop
      vertex 35.75 20.7655 12
      vertex 36.625 19.25 0
      vertex 36.625 19.25 12
    endloop
  endfacet
  facet normal 0 1 -0
    outer loop
      vertex 35.75 17.7345 0
      vertex 34 17.7345 12
      vertex 35.75 17.7345 12
    endloop
  endfacet
  facet normal 0 1 0
    outer loop
      vertex 34 17.7345 12
      vertex 35.75 17.7345 0
      vertex 34 17.7345 0
    endloop
  endfacet
  facet normal 0.866025 -0.5 0
    outer loop
      vertex 33.125 19.25 12
      vertex 34 20.7655 0
      vertex 34 20.7655 12
    endloop
  endfacet
  facet normal 0.866025 -0.5 0
    outer loop
      vertex 34 20.7655 0
      vertex 33.125 19.25 12
      vertex 33.125 19.25 0
    endloop
  endfacet
  facet normal 0 -1 0
    outer loop
      vertex 34 20.7655 0
      vertex 35.75 20.7655 12
      vertex 34 20.7655 12
    endloop
  endfacet
  facet normal 0 -1 -0
    outer loop
      vertex 35.75 20.7655 12
      vertex 34 20.7655 0
      vertex 35.75 20.7655 0
    endloop
  endfacet
  facet normal 0.866025 0.5 0
    outer loop
      vertex 34 17.7345 12
      vertex 33.125 19.25 0
      vertex 33.125 19.25 12
    endloop
  endfacet
  facet normal 0.866025 0.5 0
    outer loop
      vertex 33.125 19.25 0
      vertex 34 17.7345 12
      vertex 34 17.7345 0
    endloop
  endfacet
  facet normal -0.866025 0.5 0
    outer loop
      vertex 35.75 17.7345 0
      vertex 36.625 19.25 12
      vertex 36.625 19.25 0
    endloop
  endfacet
  facet normal -0.866025 0.5 0
    outer loop
      vertex 36.625 19.25 12
      vertex 35.75 17.7345 0
      vertex 35.75 17.7345 12
    endloop
  endfacet
  facet normal -0.866025 -0.5 0
    outer loop
      vertex 36.625 5.25 0
      vertex 35.75 6.76554 12
      vertex 35.75 6.76554 0
    endloop
  endfacet
  facet normal -0.866025 -0.5 0
    outer loop
      vertex 35.75 6.76554 12
      vertex 36.625 5.25 0
      vertex 36.625 5.25 12
    endloop
  endfacet
  facet normal 0 1 -0
    outer loop
      vertex 35.75 3.73446 0
      vertex 34 3.73446 12
      vertex 35.75 3.73446 12
    endloop
  endfacet
  facet normal 0 1 0
    outer loop
      vertex 34 3.73446 12
      vertex 35.75 3.73446 0
      vertex 34 3.73446 0
    endloop
  endfacet
  facet normal 0.866025 -0.5 0
    outer loop
      vertex 33.125 5.25 12
      vertex 34 6.76554 0
      vertex 34 6.76554 12
    endloop
  endfacet
  facet normal 0.866025 -0.5 0
    outer loop
      vertex 34 6.76554 0
      vertex 33.125 5.25 12
      vertex 33.125 5.25 0
    endloop
  endfacet
  facet normal 0 -1 0
    outer loop
      vertex 34 6.76554 0
      vertex 35.75 6.76554 12
      vertex 34 6.76554 12
    endloop
  endfacet
  facet normal 0 -1 -0
    outer loop
      vertex 35.75 6.76554 12
      vertex 34 6.76554 0
      vertex 35.75 6.76554 0
    endloop
  endfacet
  facet normal 0.866025 0.5 0
    outer loop
      vertex 34 3.73446 12
      vertex 33.125 5.25 0
      vertex 33.125 5.25 12
    endloop
  endfacet
  facet normal 0.866025 0.5 0
    outer loop
      vertex 33.125 5.25 0
      vertex 34 3.73446 12
      vertex 34 3.73446 0
    endloop
  endfacet
  facet normal -0.866025 0.5 0
    outer loop
      vertex 35.75 3.73446 0
      vertex 36.625 5.25 12
      vertex 36.625 5.25 0
    endloop
  endfacet
  facet normal -0.866025 0.5 0
    outer loop
      vertex 36.625 5.25 12
      vertex 35.75 3.73446 0
      vertex 35.75 3.73446 12
    endloop
  endfacet
endsolid OpenSCAD_Model
